<mxfile host="65bd71144e">
    <diagram id="Hp4dVfdLVx2DITK1ITba" name="Página-1">
        <mxGraphModel dx="1628" dy="1360" grid="1" gridSize="10" guides="1" tooltips="1" connect="1" arrows="1" fold="1" page="0" pageScale="1" pageWidth="827" pageHeight="1169" math="0" shadow="0">
            <root>
                <mxCell id="0"/>
                <mxCell id="1" parent="0"/>
                <mxCell id="2" value="WORKFLOW" style="shape=table;childLayout=tableLayout;startSize=40;collapsible=0;recursiveResize=0;expand=0;fontStyle=1;" parent="1" vertex="1">
                    <mxGeometry x="400" y="-120" width="2220" height="719" as="geometry"/>
                </mxCell>
                <mxCell id="3" value="Gestor" style="shape=tableRow;horizontal=0;startSize=40;swimlaneHead=0;swimlaneBody=0;top=0;left=0;bottom=0;right=0;dropTarget=0;fillColor=none;collapsible=0;recursiveResize=0;expand=0;fontStyle=1;" parent="2" vertex="1">
                    <mxGeometry y="40" width="2220" height="150" as="geometry"/>
                </mxCell>
                <mxCell id="15" value="Planificación" style="swimlane;swimlaneHead=0;swimlaneBody=0;fontStyle=0;connectable=0;fillColor=none;startSize=40;collapsible=0;recursiveResize=0;expand=0;fontStyle=1;" parent="3" vertex="1">
                    <mxGeometry x="40" width="670" height="150" as="geometry">
                        <mxRectangle width="670" height="150" as="alternateBounds"/>
                    </mxGeometry>
                </mxCell>
                <mxCell id="39" style="edgeStyle=none;html=1;exitX=1;exitY=0.5;exitDx=0;exitDy=0;entryX=0;entryY=0.5;entryDx=0;entryDy=0;" parent="15" edge="1">
                    <mxGeometry relative="1" as="geometry">
                        <mxPoint x="80" y="80" as="sourcePoint"/>
                        <mxPoint x="116" y="80" as="targetPoint"/>
                    </mxGeometry>
                </mxCell>
                <mxCell id="44" style="edgeStyle=none;html=1;endArrow=classic;endFill=1;" parent="15" edge="1">
                    <mxGeometry relative="1" as="geometry">
                        <mxPoint x="260" y="80" as="targetPoint"/>
                        <mxPoint x="206" y="80" as="sourcePoint"/>
                    </mxGeometry>
                </mxCell>
                <mxCell id="63" style="edgeStyle=none;html=1;strokeColor=default;strokeWidth=1;endArrow=classic;endFill=1;" parent="15" edge="1">
                    <mxGeometry relative="1" as="geometry">
                        <mxPoint x="510" y="79.85049833887047" as="sourcePoint"/>
                        <mxPoint x="570" y="79.65116279069775" as="targetPoint"/>
                    </mxGeometry>
                </mxCell>
                <mxCell id="181" value="" style="strokeWidth=2;html=1;shape=mxgraph.flowchart.start_1;whiteSpace=wrap;" vertex="1" parent="15">
                    <mxGeometry x="16" y="60.8" width="64" height="39.2" as="geometry"/>
                </mxCell>
                <mxCell id="182" value="Inicio" style="text;html=1;strokeColor=none;fillColor=none;align=center;verticalAlign=middle;whiteSpace=wrap;rounded=0;" vertex="1" parent="15">
                    <mxGeometry x="18" y="65" width="60" height="30" as="geometry"/>
                </mxCell>
                <mxCell id="183" value="" style="rounded=1;whiteSpace=wrap;html=1;" vertex="1" parent="15">
                    <mxGeometry x="116" y="54.79999999999998" width="94" height="49.6" as="geometry"/>
                </mxCell>
                <mxCell id="184" value="Historias de Usuario" style="text;html=1;strokeColor=none;fillColor=none;align=center;verticalAlign=middle;whiteSpace=wrap;rounded=0;" vertex="1" parent="15">
                    <mxGeometry x="133" y="64.6" width="60" height="30" as="geometry"/>
                </mxCell>
                <mxCell id="191" value="" style="html=1;verticalLabelPosition=bottom;align=center;labelBackgroundColor=#ffffff;verticalAlign=top;strokeWidth=2;strokeColor=#0080F0;shadow=0;dashed=0;shape=mxgraph.ios7.icons.document;" vertex="1" parent="15">
                    <mxGeometry x="260" y="59.2" width="30" height="40" as="geometry"/>
                </mxCell>
                <mxCell id="192" value="" style="rounded=1;whiteSpace=wrap;html=1;" vertex="1" parent="15">
                    <mxGeometry x="420" y="54.39999999999999" width="94" height="49.6" as="geometry"/>
                </mxCell>
                <mxCell id="193" value="Metáfora" style="text;html=1;strokeColor=none;fillColor=none;align=center;verticalAlign=middle;whiteSpace=wrap;rounded=0;" vertex="1" parent="15">
                    <mxGeometry x="437" y="64.20000000000002" width="60" height="30" as="geometry"/>
                </mxCell>
                <mxCell id="194" value="" style="html=1;verticalLabelPosition=bottom;align=center;labelBackgroundColor=#ffffff;verticalAlign=top;strokeWidth=2;strokeColor=#0080F0;shadow=0;dashed=0;shape=mxgraph.ios7.icons.document;" vertex="1" parent="15">
                    <mxGeometry x="570" y="59.2" width="30" height="40" as="geometry"/>
                </mxCell>
                <mxCell id="271" value="" style="endArrow=classic;html=1;" edge="1" parent="15">
                    <mxGeometry width="50" height="50" relative="1" as="geometry">
                        <mxPoint x="300" y="80" as="sourcePoint"/>
                        <mxPoint x="410" y="80" as="targetPoint"/>
                    </mxGeometry>
                </mxCell>
                <mxCell id="4" value="Diseño" style="swimlane;swimlaneHead=0;swimlaneBody=0;fontStyle=0;connectable=0;fillColor=none;startSize=40;collapsible=0;recursiveResize=0;expand=0;fontStyle=1;" parent="3" vertex="1">
                    <mxGeometry x="710" width="450" height="150" as="geometry">
                        <mxRectangle width="450" height="150" as="alternateBounds"/>
                    </mxGeometry>
                </mxCell>
                <mxCell id="5" value="Codificación" style="swimlane;swimlaneHead=0;swimlaneBody=0;fontStyle=0;connectable=0;fillColor=none;startSize=40;collapsible=0;recursiveResize=0;expand=0;fontStyle=1;" parent="3" vertex="1">
                    <mxGeometry x="1160" width="430" height="150" as="geometry">
                        <mxRectangle width="430" height="150" as="alternateBounds"/>
                    </mxGeometry>
                </mxCell>
                <mxCell id="6" value="Pruebas" style="swimlane;swimlaneHead=0;swimlaneBody=0;fontStyle=0;connectable=0;fillColor=none;startSize=40;collapsible=0;recursiveResize=0;expand=0;fontStyle=1;" parent="3" vertex="1">
                    <mxGeometry x="1590" width="630" height="150" as="geometry">
                        <mxRectangle width="630" height="150" as="alternateBounds"/>
                    </mxGeometry>
                </mxCell>
                <mxCell id="7" value="Cliente" style="shape=tableRow;horizontal=0;startSize=40;swimlaneHead=0;swimlaneBody=0;top=0;left=0;bottom=0;right=0;dropTarget=0;fillColor=none;collapsible=0;recursiveResize=0;expand=0;fontStyle=1;" parent="2" vertex="1">
                    <mxGeometry y="190" width="2220" height="130" as="geometry"/>
                </mxCell>
                <mxCell id="16" value="" style="swimlane;swimlaneHead=0;swimlaneBody=0;fontStyle=0;connectable=0;fillColor=none;startSize=0;collapsible=0;recursiveResize=0;expand=0;fontStyle=1;" parent="7" vertex="1">
                    <mxGeometry x="40" width="670" height="130" as="geometry">
                        <mxRectangle width="670" height="130" as="alternateBounds"/>
                    </mxGeometry>
                </mxCell>
                <mxCell id="268" value="" style="strokeWidth=2;html=1;shape=mxgraph.flowchart.start_1;whiteSpace=wrap;" vertex="1" parent="16">
                    <mxGeometry x="130" y="47.39999999999999" width="64" height="39.2" as="geometry"/>
                </mxCell>
                <mxCell id="269" value="Inicio" style="text;html=1;strokeColor=none;fillColor=none;align=center;verticalAlign=middle;whiteSpace=wrap;rounded=0;" vertex="1" parent="16">
                    <mxGeometry x="132" y="51.599999999999994" width="60" height="30" as="geometry"/>
                </mxCell>
                <mxCell id="8" value="" style="swimlane;swimlaneHead=0;swimlaneBody=0;fontStyle=0;connectable=0;fillColor=none;startSize=0;collapsible=0;recursiveResize=0;expand=0;fontStyle=1;" parent="7" vertex="1">
                    <mxGeometry x="710" width="450" height="130" as="geometry">
                        <mxRectangle width="450" height="130" as="alternateBounds"/>
                    </mxGeometry>
                </mxCell>
                <mxCell id="9" value="" style="swimlane;swimlaneHead=0;swimlaneBody=0;fontStyle=0;connectable=0;fillColor=none;startSize=0;collapsible=0;recursiveResize=0;expand=0;fontStyle=1;" parent="7" vertex="1">
                    <mxGeometry x="1160" width="430" height="130" as="geometry">
                        <mxRectangle width="430" height="130" as="alternateBounds"/>
                    </mxGeometry>
                </mxCell>
                <mxCell id="10" value="" style="swimlane;swimlaneHead=0;swimlaneBody=0;fontStyle=0;connectable=0;fillColor=none;startSize=0;collapsible=0;recursiveResize=0;expand=0;fontStyle=1;" parent="7" vertex="1">
                    <mxGeometry x="1590" width="630" height="130" as="geometry">
                        <mxRectangle width="630" height="130" as="alternateBounds"/>
                    </mxGeometry>
                </mxCell>
                <mxCell id="291" value="" style="rounded=1;whiteSpace=wrap;html=1;" vertex="1" parent="10">
                    <mxGeometry x="200" y="40.19999999999999" width="94" height="49.6" as="geometry"/>
                </mxCell>
                <mxCell id="292" value="Pruebas de aceptación" style="text;html=1;strokeColor=none;fillColor=none;align=center;verticalAlign=middle;whiteSpace=wrap;rounded=0;" vertex="1" parent="10">
                    <mxGeometry x="217" y="49.99999999999994" width="60" height="30" as="geometry"/>
                </mxCell>
                <mxCell id="293" style="edgeStyle=none;html=1;strokeColor=default;strokeWidth=1;endArrow=classic;endFill=1;" edge="1" parent="10">
                    <mxGeometry relative="1" as="geometry">
                        <mxPoint x="300" y="64.62068965517233" as="sourcePoint"/>
                        <mxPoint x="370" y="64.13793103448279" as="targetPoint"/>
                    </mxGeometry>
                </mxCell>
                <mxCell id="294" value="" style="html=1;verticalLabelPosition=bottom;align=center;labelBackgroundColor=#ffffff;verticalAlign=top;strokeWidth=2;strokeColor=#0080F0;shadow=0;dashed=0;shape=mxgraph.ios7.icons.document;" vertex="1" parent="10">
                    <mxGeometry x="380" y="45" width="30" height="40" as="geometry"/>
                </mxCell>
                <mxCell id="11" value="Programador" style="shape=tableRow;horizontal=0;startSize=40;swimlaneHead=0;swimlaneBody=0;top=0;left=0;bottom=0;right=0;dropTarget=0;fillColor=none;collapsible=0;recursiveResize=0;expand=0;fontStyle=1;" parent="2" vertex="1">
                    <mxGeometry y="320" width="2220" height="133" as="geometry"/>
                </mxCell>
                <mxCell id="17" style="swimlane;swimlaneHead=0;swimlaneBody=0;fontStyle=0;connectable=0;fillColor=none;startSize=0;collapsible=0;recursiveResize=0;expand=0;fontStyle=1;" parent="11" vertex="1">
                    <mxGeometry x="40" width="670" height="133" as="geometry">
                        <mxRectangle width="670" height="133" as="alternateBounds"/>
                    </mxGeometry>
                </mxCell>
                <mxCell id="12" value="" style="swimlane;swimlaneHead=0;swimlaneBody=0;fontStyle=0;connectable=0;fillColor=none;startSize=0;collapsible=0;recursiveResize=0;expand=0;fontStyle=1;" parent="11" vertex="1">
                    <mxGeometry x="710" width="450" height="133" as="geometry">
                        <mxRectangle width="450" height="133" as="alternateBounds"/>
                    </mxGeometry>
                </mxCell>
                <mxCell id="272" value="" style="rounded=1;whiteSpace=wrap;html=1;" vertex="1" parent="12">
                    <mxGeometry x="30" y="36.400000000000006" width="94" height="49.6" as="geometry"/>
                </mxCell>
                <mxCell id="273" value="Diseño simple" style="text;html=1;strokeColor=none;fillColor=none;align=center;verticalAlign=middle;whiteSpace=wrap;rounded=0;" vertex="1" parent="12">
                    <mxGeometry x="47" y="46.19999999999996" width="60" height="30" as="geometry"/>
                </mxCell>
                <mxCell id="274" value="" style="html=1;verticalLabelPosition=bottom;align=center;labelBackgroundColor=#ffffff;verticalAlign=top;strokeWidth=2;strokeColor=#0080F0;shadow=0;dashed=0;shape=mxgraph.ios7.icons.document;" vertex="1" parent="12">
                    <mxGeometry x="200" y="41.19999999999999" width="30" height="40" as="geometry"/>
                </mxCell>
                <mxCell id="275" value="" style="endArrow=classic;html=1;" edge="1" parent="12">
                    <mxGeometry width="50" height="50" relative="1" as="geometry">
                        <mxPoint x="130" y="61.10000000000002" as="sourcePoint"/>
                        <mxPoint x="190" y="61.10000000000002" as="targetPoint"/>
                    </mxGeometry>
                </mxCell>
                <mxCell id="278" style="edgeStyle=none;html=1;strokeColor=default;strokeWidth=1;endArrow=classic;endFill=1;" edge="1" parent="12">
                    <mxGeometry relative="1" as="geometry">
                        <Array as="points">
                            <mxPoint x="220" y="336"/>
                        </Array>
                        <mxPoint x="220.3692539562926" y="91" as="sourcePoint"/>
                        <mxPoint x="490" y="336" as="targetPoint"/>
                    </mxGeometry>
                </mxCell>
                <mxCell id="13" value="" style="swimlane;swimlaneHead=0;swimlaneBody=0;fontStyle=0;connectable=0;fillColor=none;startSize=0;collapsible=0;recursiveResize=0;expand=0;fontStyle=1;" parent="11" vertex="1">
                    <mxGeometry x="1160" width="430" height="133" as="geometry">
                        <mxRectangle width="430" height="133" as="alternateBounds"/>
                    </mxGeometry>
                </mxCell>
                <mxCell id="99" style="edgeStyle=none;html=1;strokeColor=default;strokeWidth=1;endArrow=classic;endFill=1;" parent="13" edge="1">
                    <mxGeometry relative="1" as="geometry">
                        <mxPoint x="150" y="60.62068965517233" as="sourcePoint"/>
                        <mxPoint x="220" y="60.13793103448279" as="targetPoint"/>
                    </mxGeometry>
                </mxCell>
                <mxCell id="281" value="" style="html=1;verticalLabelPosition=bottom;align=center;labelBackgroundColor=#ffffff;verticalAlign=top;strokeWidth=2;strokeColor=#0080F0;shadow=0;dashed=0;shape=mxgraph.ios7.icons.document;" vertex="1" parent="13">
                    <mxGeometry x="230" y="41" width="30" height="40" as="geometry"/>
                </mxCell>
                <mxCell id="284" value="" style="rounded=1;whiteSpace=wrap;html=1;" vertex="1" parent="13">
                    <mxGeometry x="50" y="36.19999999999999" width="94" height="49.6" as="geometry"/>
                </mxCell>
                <mxCell id="285" value="Programación" style="text;html=1;strokeColor=none;fillColor=none;align=center;verticalAlign=middle;whiteSpace=wrap;rounded=0;" vertex="1" parent="13">
                    <mxGeometry x="67" y="45.99999999999994" width="60" height="30" as="geometry"/>
                </mxCell>
                <mxCell id="14" value="" style="swimlane;swimlaneHead=0;swimlaneBody=0;fontStyle=0;connectable=0;fillColor=none;startSize=0;collapsible=0;recursiveResize=0;expand=0;fontStyle=1;" parent="11" vertex="1">
                    <mxGeometry x="1590" width="630" height="133" as="geometry">
                        <mxRectangle width="630" height="133" as="alternateBounds"/>
                    </mxGeometry>
                </mxCell>
                <mxCell id="18" value="Tester" style="shape=tableRow;horizontal=0;startSize=40;swimlaneHead=0;swimlaneBody=0;top=0;left=0;bottom=0;right=0;dropTarget=0;fillColor=none;collapsible=0;recursiveResize=0;expand=0;fontStyle=1;" parent="2" vertex="1">
                    <mxGeometry y="453" width="2220" height="133" as="geometry"/>
                </mxCell>
                <mxCell id="19" style="swimlane;swimlaneHead=0;swimlaneBody=0;fontStyle=0;connectable=0;fillColor=none;startSize=0;collapsible=0;recursiveResize=0;expand=0;fontStyle=1;" parent="18" vertex="1">
                    <mxGeometry x="40" width="670" height="133" as="geometry">
                        <mxRectangle width="670" height="133" as="alternateBounds"/>
                    </mxGeometry>
                </mxCell>
                <mxCell id="20" style="swimlane;swimlaneHead=0;swimlaneBody=0;fontStyle=0;connectable=0;fillColor=none;startSize=0;collapsible=0;recursiveResize=0;expand=0;fontStyle=1;" parent="18" vertex="1">
                    <mxGeometry x="710" width="450" height="133" as="geometry">
                        <mxRectangle width="450" height="133" as="alternateBounds"/>
                    </mxGeometry>
                </mxCell>
                <mxCell id="21" style="swimlane;swimlaneHead=0;swimlaneBody=0;fontStyle=0;connectable=0;fillColor=none;startSize=0;collapsible=0;recursiveResize=0;expand=0;fontStyle=1;" parent="18" vertex="1">
                    <mxGeometry x="1160" width="430" height="133" as="geometry">
                        <mxRectangle width="430" height="133" as="alternateBounds"/>
                    </mxGeometry>
                </mxCell>
                <mxCell id="288" style="edgeStyle=none;html=1;strokeColor=default;strokeWidth=1;endArrow=classic;endFill=1;" edge="1" parent="21">
                    <mxGeometry relative="1" as="geometry">
                        <Array as="points">
                            <mxPoint x="250" y="72"/>
                        </Array>
                        <mxPoint x="250" y="-43" as="sourcePoint"/>
                        <mxPoint x="460" y="72" as="targetPoint"/>
                    </mxGeometry>
                </mxCell>
                <mxCell id="22" style="swimlane;swimlaneHead=0;swimlaneBody=0;fontStyle=0;connectable=0;fillColor=none;startSize=0;collapsible=0;recursiveResize=0;expand=0;fontStyle=1;" parent="18" vertex="1">
                    <mxGeometry x="1590" width="630" height="133" as="geometry">
                        <mxRectangle width="630" height="133" as="alternateBounds"/>
                    </mxGeometry>
                </mxCell>
                <mxCell id="286" value="" style="rounded=1;whiteSpace=wrap;html=1;" vertex="1" parent="22">
                    <mxGeometry x="40" y="41.69999999999999" width="94" height="49.6" as="geometry"/>
                </mxCell>
                <mxCell id="287" value="Pruebas unitaria" style="text;html=1;strokeColor=none;fillColor=none;align=center;verticalAlign=middle;whiteSpace=wrap;rounded=0;" vertex="1" parent="22">
                    <mxGeometry x="57" y="51.49999999999994" width="60" height="30" as="geometry"/>
                </mxCell>
                <mxCell id="289" style="edgeStyle=none;html=1;strokeColor=default;strokeWidth=1;endArrow=classic;endFill=1;" edge="1" parent="22">
                    <mxGeometry relative="1" as="geometry">
                        <mxPoint x="140" y="66.12068965517233" as="sourcePoint"/>
                        <mxPoint x="210" y="65.63793103448279" as="targetPoint"/>
                    </mxGeometry>
                </mxCell>
                <mxCell id="290" value="" style="html=1;verticalLabelPosition=bottom;align=center;labelBackgroundColor=#ffffff;verticalAlign=top;strokeWidth=2;strokeColor=#0080F0;shadow=0;dashed=0;shape=mxgraph.ios7.icons.document;" vertex="1" parent="22">
                    <mxGeometry x="240" y="46.5" width="30" height="40" as="geometry"/>
                </mxCell>
                <mxCell id="23" value="Coach" style="shape=tableRow;horizontal=0;startSize=40;swimlaneHead=0;swimlaneBody=0;top=0;left=0;bottom=0;right=0;dropTarget=0;fillColor=none;collapsible=0;recursiveResize=0;expand=0;fontStyle=1;" parent="2" vertex="1">
                    <mxGeometry y="586" width="2220" height="133" as="geometry"/>
                </mxCell>
                <mxCell id="24" style="swimlane;swimlaneHead=0;swimlaneBody=0;fontStyle=0;connectable=0;fillColor=none;startSize=0;collapsible=0;recursiveResize=0;expand=0;fontStyle=1;" parent="23" vertex="1">
                    <mxGeometry x="40" width="670" height="133" as="geometry">
                        <mxRectangle width="670" height="133" as="alternateBounds"/>
                    </mxGeometry>
                </mxCell>
                <mxCell id="25" style="swimlane;swimlaneHead=0;swimlaneBody=0;fontStyle=0;connectable=0;fillColor=none;startSize=0;collapsible=0;recursiveResize=0;expand=0;fontStyle=1;" parent="23" vertex="1">
                    <mxGeometry x="710" width="450" height="133" as="geometry">
                        <mxRectangle width="450" height="133" as="alternateBounds"/>
                    </mxGeometry>
                </mxCell>
                <mxCell id="26" style="swimlane;swimlaneHead=0;swimlaneBody=0;fontStyle=0;connectable=0;fillColor=none;startSize=0;collapsible=0;recursiveResize=0;expand=0;fontStyle=1;" parent="23" vertex="1">
                    <mxGeometry x="1160" width="430" height="133" as="geometry">
                        <mxRectangle width="430" height="133" as="alternateBounds"/>
                    </mxGeometry>
                </mxCell>
                <mxCell id="276" value="" style="rounded=1;whiteSpace=wrap;html=1;" vertex="1" parent="26">
                    <mxGeometry x="48" y="45" width="94" height="49.6" as="geometry"/>
                </mxCell>
                <mxCell id="277" value="Estándares de programación" style="text;html=1;strokeColor=none;fillColor=none;align=center;verticalAlign=middle;whiteSpace=wrap;rounded=0;" vertex="1" parent="26">
                    <mxGeometry x="65" y="54.799999999999955" width="60" height="30" as="geometry"/>
                </mxCell>
                <mxCell id="27" value="" style="swimlane;swimlaneHead=0;swimlaneBody=0;fontStyle=0;connectable=0;fillColor=none;startSize=0;collapsible=0;recursiveResize=0;expand=0;fontStyle=1;" parent="23" vertex="1">
                    <mxGeometry x="1590" width="630" height="133" as="geometry">
                        <mxRectangle width="630" height="133" as="alternateBounds"/>
                    </mxGeometry>
                </mxCell>
                <mxCell id="81" style="edgeStyle=none;html=1;entryX=0;entryY=0.5;entryDx=0;entryDy=0;strokeColor=default;strokeWidth=1;endArrow=classic;endFill=1;" parent="2" edge="1">
                    <mxGeometry relative="1" as="geometry">
                        <Array as="points">
                            <mxPoint x="625" y="385"/>
                        </Array>
                        <mxPoint x="625.3692539562926" y="140.0000000000001" as="sourcePoint"/>
                        <mxPoint x="740" y="385" as="targetPoint"/>
                    </mxGeometry>
                </mxCell>
                <mxCell id="270" value="" style="endArrow=classic;html=1;exitX=0.5;exitY=0;exitDx=0;exitDy=0;exitPerimeter=0;entryX=0.5;entryY=1;entryDx=0;entryDy=0;" edge="1" parent="2" source="268" target="183">
                    <mxGeometry width="50" height="50" relative="1" as="geometry">
                        <mxPoint x="420" y="230" as="sourcePoint"/>
                        <mxPoint x="470" y="180" as="targetPoint"/>
                    </mxGeometry>
                </mxCell>
                <mxCell id="279" value="" style="endArrow=classic;html=1;" edge="1" parent="1">
                    <mxGeometry width="50" height="50" relative="1" as="geometry">
                        <mxPoint x="1660" y="500" as="sourcePoint"/>
                        <mxPoint x="1660" y="300" as="targetPoint"/>
                    </mxGeometry>
                </mxCell>
                <mxCell id="295" value="" style="endArrow=classic;html=1;" edge="1" parent="1">
                    <mxGeometry width="50" height="50" relative="1" as="geometry">
                        <mxPoint x="2240" y="360" as="sourcePoint"/>
                        <mxPoint x="2240" y="180" as="targetPoint"/>
                    </mxGeometry>
                </mxCell>
            </root>
        </mxGraphModel>
    </diagram>
</mxfile>